<mxfile host="app.diagrams.net" agent="Mozilla/5.0 (Windows NT 10.0; Win64; x64) AppleWebKit/537.36 (KHTML, like Gecko) Chrome/130.0.0.0 Safari/537.36" version="24.8.3">
  <diagram name="Page-1" id="wlkVVC5qXrJwV3apgr4_">
    <mxGraphModel dx="2140" dy="557" grid="1" gridSize="10" guides="1" tooltips="1" connect="1" arrows="1" fold="1" page="1" pageScale="1" pageWidth="850" pageHeight="1100" math="0" shadow="0">
      <root>
        <mxCell id="0" />
        <mxCell id="1" parent="0" />
        <mxCell id="MMEo0x85BEYTSs89QDjf-1" value="User Interface" style="swimlane;whiteSpace=wrap;html=1;" vertex="1" parent="1">
          <mxGeometry x="240" y="40" width="290" height="430" as="geometry" />
        </mxCell>
        <mxCell id="MMEo0x85BEYTSs89QDjf-22" value="- private Dealership dealership" style="text;html=1;align=left;verticalAlign=middle;whiteSpace=wrap;rounded=0;" vertex="1" parent="MMEo0x85BEYTSs89QDjf-1">
          <mxGeometry y="30" width="190" height="30" as="geometry" />
        </mxCell>
        <mxCell id="MMEo0x85BEYTSs89QDjf-23" value="- private Scanner scanner" style="text;html=1;align=left;verticalAlign=middle;whiteSpace=wrap;rounded=0;" vertex="1" parent="MMEo0x85BEYTSs89QDjf-1">
          <mxGeometry y="60" width="180" height="30" as="geometry" />
        </mxCell>
        <mxCell id="MMEo0x85BEYTSs89QDjf-24" value="display" style="text;html=1;align=left;verticalAlign=middle;whiteSpace=wrap;rounded=0;" vertex="1" parent="MMEo0x85BEYTSs89QDjf-1">
          <mxGeometry y="100" width="200" height="30" as="geometry" />
        </mxCell>
        <mxCell id="MMEo0x85BEYTSs89QDjf-25" value="processGetByPrice Request" style="text;html=1;align=left;verticalAlign=middle;whiteSpace=wrap;rounded=0;" vertex="1" parent="MMEo0x85BEYTSs89QDjf-1">
          <mxGeometry y="130" width="200" height="30" as="geometry" />
        </mxCell>
        <mxCell id="MMEo0x85BEYTSs89QDjf-26" value="processGetByMakeModelRequest" style="text;html=1;align=left;verticalAlign=middle;whiteSpace=wrap;rounded=0;" vertex="1" parent="MMEo0x85BEYTSs89QDjf-1">
          <mxGeometry y="160" width="200" height="30" as="geometry" />
        </mxCell>
        <mxCell id="MMEo0x85BEYTSs89QDjf-27" value="processGetByYearRequest" style="text;html=1;align=left;verticalAlign=middle;whiteSpace=wrap;rounded=0;" vertex="1" parent="MMEo0x85BEYTSs89QDjf-1">
          <mxGeometry y="190" width="250" height="30" as="geometry" />
        </mxCell>
        <mxCell id="MMEo0x85BEYTSs89QDjf-28" value="processGetByColorRequest" style="text;html=1;align=left;verticalAlign=middle;whiteSpace=wrap;rounded=0;" vertex="1" parent="MMEo0x85BEYTSs89QDjf-1">
          <mxGeometry y="220" width="220" height="30" as="geometry" />
        </mxCell>
        <mxCell id="MMEo0x85BEYTSs89QDjf-29" value="processGetByMileageRequest" style="text;html=1;align=left;verticalAlign=middle;whiteSpace=wrap;rounded=0;" vertex="1" parent="MMEo0x85BEYTSs89QDjf-1">
          <mxGeometry y="250" width="150" height="30" as="geometry" />
        </mxCell>
        <mxCell id="MMEo0x85BEYTSs89QDjf-30" value="processGetByVehicleTypeRequest" style="text;html=1;align=left;verticalAlign=middle;whiteSpace=wrap;rounded=0;" vertex="1" parent="MMEo0x85BEYTSs89QDjf-1">
          <mxGeometry y="280" width="240" height="30" as="geometry" />
        </mxCell>
        <mxCell id="MMEo0x85BEYTSs89QDjf-31" value="processGetAllVehicesRequest" style="text;html=1;align=left;verticalAlign=middle;whiteSpace=wrap;rounded=0;" vertex="1" parent="MMEo0x85BEYTSs89QDjf-1">
          <mxGeometry y="310" width="210" height="30" as="geometry" />
        </mxCell>
        <mxCell id="MMEo0x85BEYTSs89QDjf-32" value="processAddVehicleRequest" style="text;html=1;align=left;verticalAlign=middle;whiteSpace=wrap;rounded=0;" vertex="1" parent="MMEo0x85BEYTSs89QDjf-1">
          <mxGeometry y="340" width="270" height="30" as="geometry" />
        </mxCell>
        <mxCell id="MMEo0x85BEYTSs89QDjf-33" value="processRemoveVehicleRequest" style="text;html=1;align=left;verticalAlign=middle;whiteSpace=wrap;rounded=0;" vertex="1" parent="MMEo0x85BEYTSs89QDjf-1">
          <mxGeometry y="370" width="200" height="30" as="geometry" />
        </mxCell>
        <mxCell id="MMEo0x85BEYTSs89QDjf-34" value="" style="shape=link;html=1;rounded=0;" edge="1" parent="MMEo0x85BEYTSs89QDjf-1">
          <mxGeometry width="100" relative="1" as="geometry">
            <mxPoint y="90" as="sourcePoint" />
            <mxPoint x="300" y="90" as="targetPoint" />
          </mxGeometry>
        </mxCell>
        <mxCell id="MMEo0x85BEYTSs89QDjf-35" value="displayVehicles" style="text;html=1;align=left;verticalAlign=middle;whiteSpace=wrap;rounded=0;" vertex="1" parent="MMEo0x85BEYTSs89QDjf-1">
          <mxGeometry y="400" width="170" height="30" as="geometry" />
        </mxCell>
        <mxCell id="MMEo0x85BEYTSs89QDjf-3" value="Dealership" style="swimlane;whiteSpace=wrap;html=1;" vertex="1" parent="1">
          <mxGeometry x="-220" y="520" width="380" height="370" as="geometry" />
        </mxCell>
        <mxCell id="MMEo0x85BEYTSs89QDjf-59" value="private String name;" style="text;html=1;align=left;verticalAlign=middle;whiteSpace=wrap;rounded=0;" vertex="1" parent="MMEo0x85BEYTSs89QDjf-3">
          <mxGeometry y="30" width="180" height="30" as="geometry" />
        </mxCell>
        <mxCell id="MMEo0x85BEYTSs89QDjf-60" value="private String address;" style="text;html=1;align=left;verticalAlign=middle;whiteSpace=wrap;rounded=0;" vertex="1" parent="MMEo0x85BEYTSs89QDjf-3">
          <mxGeometry y="60" width="160" height="20" as="geometry" />
        </mxCell>
        <mxCell id="MMEo0x85BEYTSs89QDjf-61" value="private String phone;" style="text;html=1;align=left;verticalAlign=middle;whiteSpace=wrap;rounded=0;" vertex="1" parent="MMEo0x85BEYTSs89QDjf-3">
          <mxGeometry y="80" width="170" height="20" as="geometry" />
        </mxCell>
        <mxCell id="MMEo0x85BEYTSs89QDjf-62" value="private ArrayList&amp;lt;Vehicle&amp;gt; inventory" style="text;html=1;align=left;verticalAlign=middle;whiteSpace=wrap;rounded=0;" vertex="1" parent="MMEo0x85BEYTSs89QDjf-3">
          <mxGeometry y="100" width="210" height="20" as="geometry" />
        </mxCell>
        <mxCell id="MMEo0x85BEYTSs89QDjf-63" value="" style="shape=link;html=1;rounded=0;width=-9;" edge="1" parent="MMEo0x85BEYTSs89QDjf-3">
          <mxGeometry width="100" relative="1" as="geometry">
            <mxPoint y="140" as="sourcePoint" />
            <mxPoint x="380" y="140" as="targetPoint" />
          </mxGeometry>
        </mxCell>
        <mxCell id="MMEo0x85BEYTSs89QDjf-64" value="public Dealership()" style="text;html=1;align=left;verticalAlign=middle;whiteSpace=wrap;rounded=0;" vertex="1" parent="MMEo0x85BEYTSs89QDjf-3">
          <mxGeometry y="155" width="170" height="25" as="geometry" />
        </mxCell>
        <mxCell id="MMEo0x85BEYTSs89QDjf-65" value="public List&amp;lt;Vehicles&amp;gt; getVehiclesByPrice()" style="text;html=1;align=left;verticalAlign=middle;whiteSpace=wrap;rounded=0;" vertex="1" parent="MMEo0x85BEYTSs89QDjf-3">
          <mxGeometry y="180" width="250" height="20" as="geometry" />
        </mxCell>
        <mxCell id="MMEo0x85BEYTSs89QDjf-66" value="public List&amp;lt;Vehicles&amp;gt; getVehiclesByMakeModel()" style="text;html=1;align=left;verticalAlign=middle;whiteSpace=wrap;rounded=0;" vertex="1" parent="MMEo0x85BEYTSs89QDjf-3">
          <mxGeometry y="200" width="310" height="20" as="geometry" />
        </mxCell>
        <mxCell id="MMEo0x85BEYTSs89QDjf-67" value="public List&amp;lt;Vehicles&amp;gt; getVehiclesByYear()" style="text;html=1;align=left;verticalAlign=middle;whiteSpace=wrap;rounded=0;" vertex="1" parent="MMEo0x85BEYTSs89QDjf-3">
          <mxGeometry y="220" width="290" height="20" as="geometry" />
        </mxCell>
        <mxCell id="MMEo0x85BEYTSs89QDjf-68" value="public List&amp;lt;Vehicles&amp;gt; getVehiclesByColor()" style="text;html=1;align=left;verticalAlign=middle;whiteSpace=wrap;rounded=0;" vertex="1" parent="MMEo0x85BEYTSs89QDjf-3">
          <mxGeometry y="240" width="280" height="20" as="geometry" />
        </mxCell>
        <mxCell id="MMEo0x85BEYTSs89QDjf-69" value="public List&amp;lt;Vehicles&amp;gt; getVehicelsByMileage()" style="text;html=1;align=left;verticalAlign=middle;whiteSpace=wrap;rounded=0;" vertex="1" parent="MMEo0x85BEYTSs89QDjf-3">
          <mxGeometry y="260" width="270" height="20" as="geometry" />
        </mxCell>
        <mxCell id="MMEo0x85BEYTSs89QDjf-70" value="public List&amp;lt;Vehicles&amp;gt; getVehiclesByVehicleType()" style="text;html=1;align=left;verticalAlign=middle;whiteSpace=wrap;rounded=0;" vertex="1" parent="MMEo0x85BEYTSs89QDjf-3">
          <mxGeometry y="280" width="270" height="20" as="geometry" />
        </mxCell>
        <mxCell id="MMEo0x85BEYTSs89QDjf-71" value="public List&amp;lt;Vehicles&amp;gt; getAllVehicles()" style="text;html=1;align=left;verticalAlign=middle;whiteSpace=wrap;rounded=0;" vertex="1" parent="MMEo0x85BEYTSs89QDjf-3">
          <mxGeometry y="300" width="290" height="20" as="geometry" />
        </mxCell>
        <mxCell id="MMEo0x85BEYTSs89QDjf-72" value="public void addVehicle()" style="text;html=1;align=left;verticalAlign=middle;whiteSpace=wrap;rounded=0;" vertex="1" parent="MMEo0x85BEYTSs89QDjf-3">
          <mxGeometry y="320" width="270" height="20" as="geometry" />
        </mxCell>
        <mxCell id="MMEo0x85BEYTSs89QDjf-73" value="public void removeVehicle()" style="text;html=1;align=left;verticalAlign=middle;whiteSpace=wrap;rounded=0;" vertex="1" parent="MMEo0x85BEYTSs89QDjf-3">
          <mxGeometry y="340" width="240" height="20" as="geometry" />
        </mxCell>
        <mxCell id="MMEo0x85BEYTSs89QDjf-5" value="Vehicle" style="swimlane;whiteSpace=wrap;html=1;" vertex="1" parent="1">
          <mxGeometry x="285" y="520" width="285" height="280" as="geometry" />
        </mxCell>
        <mxCell id="MMEo0x85BEYTSs89QDjf-37" value="private int vin;" style="text;html=1;align=left;verticalAlign=middle;whiteSpace=wrap;rounded=0;" vertex="1" parent="MMEo0x85BEYTSs89QDjf-5">
          <mxGeometry y="30" width="190" height="20" as="geometry" />
        </mxCell>
        <mxCell id="MMEo0x85BEYTSs89QDjf-38" value="private int year;" style="text;html=1;align=left;verticalAlign=middle;whiteSpace=wrap;rounded=0;" vertex="1" parent="MMEo0x85BEYTSs89QDjf-5">
          <mxGeometry y="50" width="160" height="20" as="geometry" />
        </mxCell>
        <mxCell id="MMEo0x85BEYTSs89QDjf-39" value="private String make;" style="text;html=1;align=left;verticalAlign=middle;whiteSpace=wrap;rounded=0;" vertex="1" parent="MMEo0x85BEYTSs89QDjf-5">
          <mxGeometry y="70" width="160" height="20" as="geometry" />
        </mxCell>
        <mxCell id="MMEo0x85BEYTSs89QDjf-40" value="private String model;" style="text;html=1;align=left;verticalAlign=middle;whiteSpace=wrap;rounded=0;" vertex="1" parent="MMEo0x85BEYTSs89QDjf-5">
          <mxGeometry y="90" width="150" height="20" as="geometry" />
        </mxCell>
        <mxCell id="MMEo0x85BEYTSs89QDjf-41" value="private String vehicleType;" style="text;html=1;align=left;verticalAlign=middle;whiteSpace=wrap;rounded=0;" vertex="1" parent="MMEo0x85BEYTSs89QDjf-5">
          <mxGeometry y="110" width="170" height="20" as="geometry" />
        </mxCell>
        <mxCell id="MMEo0x85BEYTSs89QDjf-100" style="edgeStyle=orthogonalEdgeStyle;rounded=0;orthogonalLoop=1;jettySize=auto;html=1;exitX=0;exitY=0.25;exitDx=0;exitDy=0;" edge="1" parent="MMEo0x85BEYTSs89QDjf-5" source="MMEo0x85BEYTSs89QDjf-42">
          <mxGeometry relative="1" as="geometry">
            <mxPoint x="-125" y="150" as="targetPoint" />
          </mxGeometry>
        </mxCell>
        <mxCell id="MMEo0x85BEYTSs89QDjf-42" value="private String color;" style="text;html=1;align=left;verticalAlign=middle;whiteSpace=wrap;rounded=0;" vertex="1" parent="MMEo0x85BEYTSs89QDjf-5">
          <mxGeometry y="130" width="170" height="20" as="geometry" />
        </mxCell>
        <mxCell id="MMEo0x85BEYTSs89QDjf-43" value="private int odometer;" style="text;html=1;align=left;verticalAlign=middle;whiteSpace=wrap;rounded=0;" vertex="1" parent="MMEo0x85BEYTSs89QDjf-5">
          <mxGeometry y="150" width="180" height="20" as="geometry" />
        </mxCell>
        <mxCell id="MMEo0x85BEYTSs89QDjf-44" value="private double price;" style="text;html=1;align=left;verticalAlign=middle;whiteSpace=wrap;rounded=0;" vertex="1" parent="MMEo0x85BEYTSs89QDjf-5">
          <mxGeometry y="170" width="160" height="20" as="geometry" />
        </mxCell>
        <mxCell id="MMEo0x85BEYTSs89QDjf-46" value="public Vehicle()" style="text;html=1;align=left;verticalAlign=middle;whiteSpace=wrap;rounded=0;" vertex="1" parent="MMEo0x85BEYTSs89QDjf-5">
          <mxGeometry x="5" y="220" width="225" height="30" as="geometry" />
        </mxCell>
        <mxCell id="MMEo0x85BEYTSs89QDjf-45" value="" style="shape=link;html=1;rounded=0;" edge="1" parent="MMEo0x85BEYTSs89QDjf-5">
          <mxGeometry width="100" relative="1" as="geometry">
            <mxPoint y="199" as="sourcePoint" />
            <mxPoint x="285" y="199" as="targetPoint" />
          </mxGeometry>
        </mxCell>
        <mxCell id="MMEo0x85BEYTSs89QDjf-95" style="edgeStyle=orthogonalEdgeStyle;rounded=0;orthogonalLoop=1;jettySize=auto;html=1;exitX=0.5;exitY=0;exitDx=0;exitDy=0;entryX=0.5;entryY=0;entryDx=0;entryDy=0;" edge="1" parent="1" source="MMEo0x85BEYTSs89QDjf-10" target="MMEo0x85BEYTSs89QDjf-10">
          <mxGeometry relative="1" as="geometry" />
        </mxCell>
        <mxCell id="MMEo0x85BEYTSs89QDjf-96" style="edgeStyle=orthogonalEdgeStyle;rounded=0;orthogonalLoop=1;jettySize=auto;html=1;exitX=0.5;exitY=1;exitDx=0;exitDy=0;entryX=0.5;entryY=0;entryDx=0;entryDy=0;" edge="1" parent="1" source="MMEo0x85BEYTSs89QDjf-6" target="MMEo0x85BEYTSs89QDjf-11">
          <mxGeometry relative="1" as="geometry" />
        </mxCell>
        <mxCell id="MMEo0x85BEYTSs89QDjf-102" style="edgeStyle=orthogonalEdgeStyle;rounded=0;orthogonalLoop=1;jettySize=auto;html=1;exitX=0.5;exitY=1;exitDx=0;exitDy=0;entryX=0.5;entryY=0;entryDx=0;entryDy=0;" edge="1" parent="1" source="MMEo0x85BEYTSs89QDjf-6" target="MMEo0x85BEYTSs89QDjf-10">
          <mxGeometry relative="1" as="geometry" />
        </mxCell>
        <mxCell id="MMEo0x85BEYTSs89QDjf-6" value="Contract" style="swimlane;whiteSpace=wrap;html=1;" vertex="1" parent="1">
          <mxGeometry x="710" y="520" width="390" height="310" as="geometry" />
        </mxCell>
        <mxCell id="MMEo0x85BEYTSs89QDjf-48" value="private String name;" style="text;html=1;align=left;verticalAlign=middle;whiteSpace=wrap;rounded=0;" vertex="1" parent="MMEo0x85BEYTSs89QDjf-6">
          <mxGeometry y="40" width="190" height="30" as="geometry" />
        </mxCell>
        <mxCell id="MMEo0x85BEYTSs89QDjf-49" value="private String date;" style="text;html=1;align=left;verticalAlign=middle;whiteSpace=wrap;rounded=0;" vertex="1" parent="MMEo0x85BEYTSs89QDjf-6">
          <mxGeometry y="70" width="190" height="20" as="geometry" />
        </mxCell>
        <mxCell id="MMEo0x85BEYTSs89QDjf-50" value="private String email;" style="text;html=1;align=left;verticalAlign=middle;whiteSpace=wrap;rounded=0;" vertex="1" parent="MMEo0x85BEYTSs89QDjf-6">
          <mxGeometry y="90" width="200" height="20" as="geometry" />
        </mxCell>
        <mxCell id="MMEo0x85BEYTSs89QDjf-51" value="private Vehicle vehicleSold;" style="text;html=1;align=left;verticalAlign=middle;whiteSpace=wrap;rounded=0;" vertex="1" parent="MMEo0x85BEYTSs89QDjf-6">
          <mxGeometry y="110" width="190" height="20" as="geometry" />
        </mxCell>
        <mxCell id="MMEo0x85BEYTSs89QDjf-52" value="private double totalPrice;" style="text;html=1;align=left;verticalAlign=middle;whiteSpace=wrap;rounded=0;" vertex="1" parent="MMEo0x85BEYTSs89QDjf-6">
          <mxGeometry y="130" width="200" height="20" as="geometry" />
        </mxCell>
        <mxCell id="MMEo0x85BEYTSs89QDjf-53" value="private double monthlyPayment" style="text;html=1;align=left;verticalAlign=middle;whiteSpace=wrap;rounded=0;" vertex="1" parent="MMEo0x85BEYTSs89QDjf-6">
          <mxGeometry y="150" width="200" height="20" as="geometry" />
        </mxCell>
        <mxCell id="MMEo0x85BEYTSs89QDjf-55" value="" style="shape=link;html=1;rounded=0;" edge="1" parent="MMEo0x85BEYTSs89QDjf-6">
          <mxGeometry width="100" relative="1" as="geometry">
            <mxPoint y="190" as="sourcePoint" />
            <mxPoint x="390" y="190" as="targetPoint" />
          </mxGeometry>
        </mxCell>
        <mxCell id="MMEo0x85BEYTSs89QDjf-56" value="abstract getTotalPrice;" style="text;html=1;align=left;verticalAlign=middle;whiteSpace=wrap;rounded=0;" vertex="1" parent="MMEo0x85BEYTSs89QDjf-6">
          <mxGeometry y="230" width="220" height="20" as="geometry" />
        </mxCell>
        <mxCell id="MMEo0x85BEYTSs89QDjf-57" value="abstract double getMonthlyPayment;" style="text;html=1;align=left;verticalAlign=middle;whiteSpace=wrap;rounded=0;" vertex="1" parent="MMEo0x85BEYTSs89QDjf-6">
          <mxGeometry y="260" width="200" height="20" as="geometry" />
        </mxCell>
        <mxCell id="MMEo0x85BEYTSs89QDjf-10" value="SalesContract" style="swimlane;whiteSpace=wrap;html=1;" vertex="1" parent="1">
          <mxGeometry x="510" y="1100" width="340" height="240" as="geometry" />
        </mxCell>
        <mxCell id="MMEo0x85BEYTSs89QDjf-78" value="public SalesContract()" style="text;html=1;align=left;verticalAlign=middle;whiteSpace=wrap;rounded=0;" vertex="1" parent="MMEo0x85BEYTSs89QDjf-10">
          <mxGeometry x="5" y="30" width="235" height="30" as="geometry" />
        </mxCell>
        <mxCell id="MMEo0x85BEYTSs89QDjf-79" value="private double salesTaxAmount;" style="text;html=1;align=left;verticalAlign=middle;whiteSpace=wrap;rounded=0;" vertex="1" parent="MMEo0x85BEYTSs89QDjf-10">
          <mxGeometry y="60" width="220" height="20" as="geometry" />
        </mxCell>
        <mxCell id="MMEo0x85BEYTSs89QDjf-80" value="private double recordingFee;" style="text;html=1;align=left;verticalAlign=middle;whiteSpace=wrap;rounded=0;" vertex="1" parent="MMEo0x85BEYTSs89QDjf-10">
          <mxGeometry y="80" width="220" height="20" as="geometry" />
        </mxCell>
        <mxCell id="MMEo0x85BEYTSs89QDjf-81" value="private double processingFee;" style="text;html=1;align=left;verticalAlign=middle;whiteSpace=wrap;rounded=0;" vertex="1" parent="MMEo0x85BEYTSs89QDjf-10">
          <mxGeometry y="100" width="210" height="20" as="geometry" />
        </mxCell>
        <mxCell id="MMEo0x85BEYTSs89QDjf-82" value="private boolean FinanceOption;" style="text;html=1;align=left;verticalAlign=middle;whiteSpace=wrap;rounded=0;" vertex="1" parent="MMEo0x85BEYTSs89QDjf-10">
          <mxGeometry y="120" width="210" height="20" as="geometry" />
        </mxCell>
        <mxCell id="MMEo0x85BEYTSs89QDjf-83" value="" style="shape=link;html=1;rounded=0;" edge="1" parent="MMEo0x85BEYTSs89QDjf-10">
          <mxGeometry width="100" relative="1" as="geometry">
            <mxPoint y="160" as="sourcePoint" />
            <mxPoint x="340" y="160" as="targetPoint" />
          </mxGeometry>
        </mxCell>
        <mxCell id="MMEo0x85BEYTSs89QDjf-84" value="public getTotalPrice()" style="text;html=1;align=left;verticalAlign=middle;whiteSpace=wrap;rounded=0;" vertex="1" parent="MMEo0x85BEYTSs89QDjf-10">
          <mxGeometry y="170" width="240" height="20" as="geometry" />
        </mxCell>
        <mxCell id="MMEo0x85BEYTSs89QDjf-85" value="public double getMonthlyPayment()" style="text;html=1;align=left;verticalAlign=middle;whiteSpace=wrap;rounded=0;" vertex="1" parent="MMEo0x85BEYTSs89QDjf-10">
          <mxGeometry y="190" width="240" height="20" as="geometry" />
        </mxCell>
        <mxCell id="MMEo0x85BEYTSs89QDjf-11" value="LeaseContract" style="swimlane;whiteSpace=wrap;html=1;" vertex="1" parent="1">
          <mxGeometry x="1070" y="1100" width="260" height="250" as="geometry" />
        </mxCell>
        <mxCell id="MMEo0x85BEYTSs89QDjf-87" value="public LeaseContract()" style="text;html=1;align=left;verticalAlign=middle;whiteSpace=wrap;rounded=0;" vertex="1" parent="MMEo0x85BEYTSs89QDjf-11">
          <mxGeometry y="30" width="230" height="20" as="geometry" />
        </mxCell>
        <mxCell id="MMEo0x85BEYTSs89QDjf-88" value="private double expectedEndingValue" style="text;html=1;align=left;verticalAlign=middle;whiteSpace=wrap;rounded=0;" vertex="1" parent="MMEo0x85BEYTSs89QDjf-11">
          <mxGeometry y="55" width="210" height="25" as="geometry" />
        </mxCell>
        <mxCell id="MMEo0x85BEYTSs89QDjf-89" value="private double leaseFee;" style="text;html=1;align=left;verticalAlign=middle;whiteSpace=wrap;rounded=0;" vertex="1" parent="MMEo0x85BEYTSs89QDjf-11">
          <mxGeometry y="80" width="230" height="20" as="geometry" />
        </mxCell>
        <mxCell id="MMEo0x85BEYTSs89QDjf-90" value="private double interestRate;" style="text;html=1;align=left;verticalAlign=middle;whiteSpace=wrap;rounded=0;" vertex="1" parent="MMEo0x85BEYTSs89QDjf-11">
          <mxGeometry y="100" width="170" height="20" as="geometry" />
        </mxCell>
        <mxCell id="MMEo0x85BEYTSs89QDjf-91" value="private int numberOfPayments;" style="text;html=1;align=left;verticalAlign=middle;whiteSpace=wrap;rounded=0;" vertex="1" parent="MMEo0x85BEYTSs89QDjf-11">
          <mxGeometry y="120" width="200" height="20" as="geometry" />
        </mxCell>
        <mxCell id="MMEo0x85BEYTSs89QDjf-92" value="" style="shape=link;html=1;rounded=0;" edge="1" parent="MMEo0x85BEYTSs89QDjf-11">
          <mxGeometry width="100" relative="1" as="geometry">
            <mxPoint y="150" as="sourcePoint" />
            <mxPoint x="260" y="150" as="targetPoint" />
          </mxGeometry>
        </mxCell>
        <mxCell id="MMEo0x85BEYTSs89QDjf-93" value="public double getTotalPrice()" style="text;html=1;align=left;verticalAlign=middle;whiteSpace=wrap;rounded=0;" vertex="1" parent="MMEo0x85BEYTSs89QDjf-11">
          <mxGeometry y="160" width="180" height="20" as="geometry" />
        </mxCell>
        <mxCell id="MMEo0x85BEYTSs89QDjf-94" value="public double getMonthlyPayment()" style="text;html=1;align=left;verticalAlign=middle;whiteSpace=wrap;rounded=0;" vertex="1" parent="MMEo0x85BEYTSs89QDjf-11">
          <mxGeometry y="180" width="200" height="20" as="geometry" />
        </mxCell>
        <mxCell id="MMEo0x85BEYTSs89QDjf-97" style="edgeStyle=orthogonalEdgeStyle;rounded=0;orthogonalLoop=1;jettySize=auto;html=1;exitX=0;exitY=0.5;exitDx=0;exitDy=0;" edge="1" parent="1" source="MMEo0x85BEYTSs89QDjf-15">
          <mxGeometry relative="1" as="geometry">
            <mxPoint x="1100" y="620" as="targetPoint" />
          </mxGeometry>
        </mxCell>
        <mxCell id="MMEo0x85BEYTSs89QDjf-15" value="ContractFileManager" style="swimlane;whiteSpace=wrap;html=1;" vertex="1" parent="1">
          <mxGeometry x="1190" y="520" width="280" height="200" as="geometry" />
        </mxCell>
        <mxCell id="MMEo0x85BEYTSs89QDjf-76" value="public Contract getContract()" style="text;html=1;align=left;verticalAlign=middle;whiteSpace=wrap;rounded=0;" vertex="1" parent="MMEo0x85BEYTSs89QDjf-15">
          <mxGeometry y="30" width="220" height="20" as="geometry" />
        </mxCell>
        <mxCell id="MMEo0x85BEYTSs89QDjf-77" value="public void writeContract()" style="text;html=1;align=left;verticalAlign=middle;whiteSpace=wrap;rounded=0;" vertex="1" parent="MMEo0x85BEYTSs89QDjf-15">
          <mxGeometry y="60" width="180" height="20" as="geometry" />
        </mxCell>
        <mxCell id="MMEo0x85BEYTSs89QDjf-17" value="DealershipFileManager" style="swimlane;whiteSpace=wrap;html=1;" vertex="1" parent="1">
          <mxGeometry x="-650" y="540" width="320" height="180" as="geometry" />
        </mxCell>
        <mxCell id="MMEo0x85BEYTSs89QDjf-74" value="public Dealership getDealership()" style="text;html=1;align=left;verticalAlign=middle;whiteSpace=wrap;rounded=0;" vertex="1" parent="MMEo0x85BEYTSs89QDjf-17">
          <mxGeometry y="30" width="260" height="30" as="geometry" />
        </mxCell>
        <mxCell id="MMEo0x85BEYTSs89QDjf-75" value="public void saveDealership()" style="text;html=1;align=left;verticalAlign=middle;whiteSpace=wrap;rounded=0;" vertex="1" parent="MMEo0x85BEYTSs89QDjf-17">
          <mxGeometry y="60" width="230" height="30" as="geometry" />
        </mxCell>
        <mxCell id="MMEo0x85BEYTSs89QDjf-58" value="public Contract" style="text;html=1;align=left;verticalAlign=middle;whiteSpace=wrap;rounded=0;" vertex="1" parent="1">
          <mxGeometry x="710" y="720" width="180" height="30" as="geometry" />
        </mxCell>
        <mxCell id="MMEo0x85BEYTSs89QDjf-98" style="edgeStyle=orthogonalEdgeStyle;rounded=0;orthogonalLoop=1;jettySize=auto;html=1;exitX=0;exitY=0;exitDx=0;exitDy=0;entryX=1;entryY=0.5;entryDx=0;entryDy=0;" edge="1" parent="1" source="MMEo0x85BEYTSs89QDjf-52" target="MMEo0x85BEYTSs89QDjf-5">
          <mxGeometry relative="1" as="geometry" />
        </mxCell>
        <mxCell id="MMEo0x85BEYTSs89QDjf-99" style="edgeStyle=orthogonalEdgeStyle;rounded=0;orthogonalLoop=1;jettySize=auto;html=1;exitX=0.5;exitY=0;exitDx=0;exitDy=0;entryX=0.88;entryY=1.02;entryDx=0;entryDy=0;entryPerimeter=0;" edge="1" parent="1" source="MMEo0x85BEYTSs89QDjf-5" target="MMEo0x85BEYTSs89QDjf-35">
          <mxGeometry relative="1" as="geometry" />
        </mxCell>
        <mxCell id="MMEo0x85BEYTSs89QDjf-101" style="edgeStyle=orthogonalEdgeStyle;rounded=0;orthogonalLoop=1;jettySize=auto;html=1;exitX=1;exitY=0.5;exitDx=0;exitDy=0;entryX=-0.032;entryY=0.25;entryDx=0;entryDy=0;entryPerimeter=0;" edge="1" parent="1" source="MMEo0x85BEYTSs89QDjf-17" target="MMEo0x85BEYTSs89QDjf-65">
          <mxGeometry relative="1" as="geometry" />
        </mxCell>
      </root>
    </mxGraphModel>
  </diagram>
</mxfile>
